<svg xmlns="http://www.w3.org/2000/svg" viewBox="0 0 32 32">
  <defs>
    <linearGradient id="grad1" x1="0%" y1="0%" x2="100%" y2="100%">
      <stop offset="0%" style="stop-color:#F4C430;stop-opacity:1" />
      <stop offset="100%" style="stop-color:#FF8C42;stop-opacity:1" />
    </linearGradient>
  </defs>
  <rect width="32" height="32" rx="6" fill="url(#grad1)"/>
  <path d="M16 8c-1.5 0-3 0.5-4 1.5C10.5 10.5 10 12 10 13.5c0 2 1 3.5 2.5 4.5 0.5 0.3 1 0.5 1.5 0.7v3.3c0 1.1 0.9 2 2 2s2-0.9 2-2v-3.3c0.5-0.2 1-0.4 1.5-0.7 1.5-1 2.5-2.5 2.5-4.5 0-1.5-0.5-3-1.5-4S17.5 8 16 8z" fill="#2C1810" opacity="0.8"/>
  <circle cx="16" cy="13" r="2" fill="#2C1810" opacity="0.6"/>
</svg>